<svg xmlns="http://www.w3.org/2000/svg" viewBox="0 0 240 240" role="img" aria-labelledby="t"><title id="t">Cattle / animals</title><desc>Warning triangle: cattle or farm animals on the road, cow silhouette.</desc><path d="M120 26 L212 198 L28 198 Z" fill="#ffffff" stroke="#C81E2D" stroke-width="15" stroke-linejoin="round"/><path d="M92 124 L152 124 Q166 124 166 140 L166 156 L92 156 Q80 156 80 142 Q80 124 92 124 Z" fill="#141414"/><path d="M80 138 Q64 134 62 150 L76 154 Q80 146 88 148 Z" fill="#141414"/><path d="M66 134 L60 124 M74 132 L74 122" fill="none" stroke="#141414" stroke-width="4" stroke-linecap="round"/><path d="M166 140 Q180 146 172 172" fill="none" stroke="#141414" stroke-width="5" stroke-linecap="round"/><path d="M96 156 L96 178 M120 156 L120 178 M144 156 L144 178 M160 156 L160 178" fill="none" stroke="#141414" stroke-width="6" stroke-linecap="round"/></svg>
