<svg xmlns="http://www.w3.org/2000/svg" viewBox="0 0 240 240" role="img" aria-labelledby="t"><title id="t">Mini roundabout</title><desc>Mandatory blue circle with three white curved arrows rotating clockwise.</desc><circle cx="120" cy="120" r="112" fill="#0B5FB0"/><g fill="none" stroke="#fff" stroke-width="13" stroke-linecap="round"><g><path d="M120 68 A52 52 0 0 1 165 94"/></g><g transform="rotate(120 120 120)"><path d="M120 68 A52 52 0 0 1 165 94"/></g><g transform="rotate(240 120 120)"><path d="M120 68 A52 52 0 0 1 165 94"/></g></g><g fill="#fff"><polygon points="176,90 150,86 162,112"/><g transform="rotate(120 120 120)"><polygon points="176,90 150,86 162,112"/></g><g transform="rotate(240 120 120)"><polygon points="176,90 150,86 162,112"/></g></g></svg>
